<?xml version="1.0" encoding="UTF-8"?>
<svg id="Capa_1" xmlns="http://www.w3.org/2000/svg" viewBox="0 0 1080 1070.06">
  <defs>
    <style>
      .cls-1 {
        fill: #fff;
      }
    </style>
  </defs>
  <path class="cls-1" d="M359.87,282.22c-10.3-40.13-32.57-69.96-68.56-90.93,8.5,0,17.01-.35,25.49.06,40.87,1.99,81.73,4.2,122.6,6.3,52.18,2.68,104.36,5.21,156.53,8.01,32.79,1.76,58.75,16.68,81.57,40.02,53.13,54.34,107.3,107.67,161.04,161.41,57.45,57.44,114.9,114.89,172.34,172.34,18.79,18.79,37.19,37.98,56.48,56.24,17.89,16.93,15.76,42.38,0,57.81-45.9,44.94-91.03,90.65-136.43,136.1-42.63,42.68-85.19,85.41-127.81,128.1-25.54,25.58-51.13,51.11-76.68,76.67-15.14,15.14-37.56,15.8-53.25.56-24.22-23.52-47.89-47.61-71.77-71.48-42.21-42.2-84.38-84.44-126.59-126.64-42.67-42.66-85.37-85.3-128.05-127.96-24.03-24.01-47.82-48.27-72.15-71.97-22.22-21.64-33.2-47.8-34.67-78.54-2.97-62.18-6.22-124.35-9.41-186.52-1.76-34.34-4.03-68.67-5.15-103.03-.3-9.13,2.31-18.51,4.71-27.47.66-2.45,5.22-5.01,8.3-5.47,15.59-2.32,29.15,3.26,41.25,12.55,20.08,15.41,33.69,35.63,42.19,59.27,1.26,3.5.81,8.1-.19,11.84-7.19,27.04,8.48,55.64,35.18,63.63,26.31,7.87,55.59-7.06,64.44-32.87,12.46-36.33-16.89-73-55.09-68.84-2.13.23-4.24.54-6.35.81ZM648.12,379.05c-15.44-.45-28.41,4.16-40.19,11.34-33.61,20.47-61.02,47.58-81.64,81.04-13.47,21.85-17.72,45.51-5.58,69.56,10.66,21.14,27.1,37.29,47.76,48.64,17.46,9.59,35.92,10.59,54.81,3.57,20.41-7.58,37.18-20.49,52.88-35.09,18.24-16.95,34.9-35.2,46.67-57.4,14.85-28,13.41-55.01-6.57-79.84-7.97-9.91-17.39-18.9-27.24-26.98-12.01-9.86-26.18-15.42-40.9-14.83ZM827.53,746.13c-.45-4.1-.56-8.27-1.4-12.28-4.07-19.44-16.11-34.06-29.94-47.21-26.28-24.99-55.6-33.61-89.77-14.69-37.2,20.6-66.02,50.19-87.44,86.7-9.98,16.99-14.16,35.64-7.53,55.21,8.5,25.11,26.13,42.77,47.84,56.65,5.94,3.8,12.85,6.59,19.69,8.35,21.73,5.6,41.37-.75,59.48-12.54,28.41-18.51,52.09-42.08,71.44-69.82,10.45-14.98,18-31.36,17.64-50.37ZM471.47,682.14c10.66,10.84,20.9,21.15,31.01,31.59,2.77,2.86,5.32,3.35,9.17,1.76,12.26-5.04,24.71-9.62,37.11-14.34,39.62-15.08,79.26-30.11,118.87-45.22,58.11-22.17,116.21-44.37,174.3-66.59,9.43-3.61,18.81-7.36,28.87-11.3-11.43-11.43-22.11-22.28-33.08-32.84-1.26-1.21-4.4-1.61-6.15-.97-17.36,6.33-34.63,12.89-51.88,19.53-62.5,24.04-124.96,48.17-187.46,72.2-39.98,15.37-80.01,30.6-120.76,46.18Z"/>
  <path class="cls-1" d="M250.27,193.87c-5.89,5.19-11.72,10.32-18.03,15.88-6.7-11.89-9.57-24.44-7.11-37.67,3.01-16.23,6.82-32.32,10.45-48.43,3.32-14.73,6.1-29.45,2.08-44.5-5.37-20.11-19.72-32.22-37.2-41.43-34.54-18.19-70.12-20.04-105.65-4.13-32.06,14.35-53.25,39.39-63.76,72.9-13.01,41.47-7.35,82.21,6.45,122.32,16.5,47.95,44.38,89.32,74.79,129.32,23.77,31.27,44.26,64.64,58.24,101.56,21.02,55.51,23.14,111.04-.28,166.62-14.25,33.81-34.96,63.52-56.84,92.61-18.3,24.32-37.77,47.96-53.94,73.64-32.46,51.55-37.78,107.65-18.64,164.92,16.17,48.39,51.33,76.85,101.77,85.93,30.95,5.57,61.87,4.31,91.82-4.49,58.34-17.15,91.74-57.13,102.18-116.68,5.11-29.15,2.75-57.75-7.88-85.38-5.67-14.74-13.48-28.23-26.81-37.82-2.95-2.13-6.36-5.99-6.44-9.14-.11-3.91,2.09-8.87,4.96-11.65,4.35-4.19,10.44-2.62,14.27,1.12,8.67,8.45,17.95,16.78,24.52,26.77,16.32,24.84,22.28,53.06,23.11,82.51,1.13,39.88-8.43,76.95-31.01,109.9-26.15,38.15-63.62,59.02-108.55,67.16-29.14,5.28-58.36,6.2-87.6.27-52.34-10.62-90.01-39.92-111.96-88.64-18.65-41.4-19.58-84.53-11.52-128.56,7.17-39.14,27.64-71.38,50.82-102.45,21.2-28.42,43.22-56.29,63.16-85.57,25.92-38.05,41.27-80.02,38.34-126.98-1.76-28.32-9.84-55.08-21.49-80.92-14.61-32.37-34.31-61.46-55.75-89.56C50.94,316.4,21.01,266.28,7.13,208.26-4.8,158.39-3.59,109.25,24.94,64.61,52.86,20.93,93.97-.24,145.88,0c34.24.16,64.41,11.66,90.24,33.95,19.39,16.73,28.76,38.73,26.38,63.89-1.96,20.65-7.35,41-11.55,61.42-3.1,15.05-3.47,21.66-.68,34.61Z"/>
  <path class="cls-1" d="M238.37,222.9c5.71-10.27,13.9-17.37,24.19-21.53,8.39-3.39,16.78-.53,24.62,2.98,23.61,10.57,38.88,29.64,50.73,51.64,4.37,8.13,6.64,17.39,9.84,26.15,1.14,3.12.07,4.98-2.81,6.82-4.55,2.9-8.63,6.52-13.12,10.01-19.43-38.91-43.15-73.28-93.45-76.08Z"/>
  <path class="cls-1" d="M598.2,552.27c-26.4-.07-45.01-27.05-35.56-47.34,4.77-10.25,11.83-19.71,19.16-28.43,13.44-15.99,28.41-30.63,46.02-42.1,20.59-13.41,38.34-9.56,52.31,10.51,9.21,13.24,5.45,26.2-2.26,37.75-16.44,24.61-37.05,45.48-61.86,61.77-6.35,4.17-14.07,6.23-17.82,7.83Z"/>
  <path class="cls-1" d="M744.15,709.4c25.43,1.01,42.75,28.49,32.4,49.47-4.83,9.8-11.57,18.91-18.69,27.26-14.4,16.9-30.11,32.62-49.66,43.72-21.01,11.93-45.91,1.63-52.82-21.59-3.28-11.02.64-20.85,6.44-29.63,15.61-23.66,35.57-43.28,58.6-59.68,7.61-5.42,16.08-9.53,23.73-9.55Z"/>
</svg>