<?xml version="1.0" encoding="UTF-8"?>
<svg id="Capa_2" xmlns="http://www.w3.org/2000/svg" viewBox="0 0 368.4 310.18">
  <defs>
    <style>
      .cls-1 {
        fill: #f37801;
      }

      .cls-2 {
        fill: #fec148;
      }

      .cls-3 {
        fill: #f37a00;
      }

      .cls-4 {
        fill: #fec248;
      }

      .cls-5 {
        fill: #fec147;
      }
    </style>
  </defs>
  <g id="Capa_1-2" data-name="Capa_1">
    <path class="cls-3" d="M200.05,210.55c-9.85,7.59-19.17,15.6-29.04,22.94-6.94,5.16-13.99,10.12-21.61,14.26-8.77,4.76-17.81,5.86-27.27,2.3-21.15-7.96-38.17-20.79-47.79-41.8-5.1-11.14-6.18-22.99-3.99-35.08,3.35-18.46,16.41-27.96,32.21-34.99,2.6-1.16,6.98-.96,7.21-4.15.19-2.66-3.97-3.44-6.25-4.94-7.77-5.1-15.03-10.64-17.13-20.4-1.39-6.45-.52-12.9.91-19.25,3.65-16.11,4.67-32.51,5.59-48.93.57-10.27,1.58-20.51,4.91-30.34,3.06-9.01,7.91-11.66,17.22-9.36,14.6,3.61,26.32,12.34,37.64,21.62,34.53,28.32,53.39,66.14,65.19,108.18,2.94,10.49,5.26,21.13,7.37,32.35,8.78-6.97,17.28-13.82,25.89-20.52,21.39-16.67,43.27-32.55,69.59-40.78,12.21-3.82,24.62-6.65,37.53-6.58,9.05.05,12.26,4.83,8.84,13.3-3,7.42-8.54,13.02-13.81,18.76-11.15,12.16-24.28,22.33-34.98,34.95-5.6,6.6-11.22,13.18-16.82,19.77-6.62,7.79-15.13,11.73-25.27,12.18-2.09.09-3.43.26-3.38,2.94.29,14.8-6.73,26.66-16.47,36.73-14.12,14.61-30.43,26.2-50.42,31.69-1.91.52-3.84,1.01-5.78,1.4-11.05,2.24-18.64-5.74-15.81-16.76,3.19-12.4,8.44-24.01,13.94-35.52.62-1.3,1.19-2.63,1.78-3.95Z"/>
    <path class="cls-1" d="M56.88,310.15c-20.77-.15-37.29-1.49-53.6-5.02-1.33-.29-3.6.36-3.25-1.91.32-2.06,2.49-1.23,3.79-1.07,15.27,1.97,30.58,1.25,45.89.9,39.3-.9,75.44-11.69,107.76-34.44.95-.67,1.93-1.29,2.89-1.95,1.08-.75,2.2-.92,3.15.09.91.96,1.82,2.02,1.02,3.53-1.02,1.92-2.25,3.63-3.91,5.11-19.79,17.68-43.38,27.1-69.16,31.59-12.78,2.23-25.69,3.43-34.57,3.16Z"/>
    <path class="cls-2" d="M101.44,99.75c1.09-15.04,2.97-26.82,4.92-38.58.8-4.84,3.24-5.76,7.85-2.75,7.79,5.08,15.48,10.35,22.93,15.91,11.99,8.94,23.86,18.03,34.35,28.79,14.5,14.86,24.62,32.52,33.27,51.15,1.05,2.26,2.15,4.52,2.92,6.87.37,1.12,1.77,2.55.36,3.61-1.25.93-2.53-.34-3.61-.98-11.02-6.52-21.93-13.21-33.02-19.61-17.14-9.9-34.64-19.12-52.68-27.31-2.87-1.3-5.53-3.06-8.36-4.44-6.64-3.24-9.77-8.31-8.94-12.65Z"/>
    <path class="cls-2" d="M208,181.5c-9.14,5.82-18.28,9.29-27.48,12.44-24.79,8.48-50.16,15.06-75.38,22.09-2.33.65-4.29.9-6.22-1.32-8.59-9.88-13.4-21.22-14-34.33-.14-3.1.92-4.68,4.31-4.4,11.73.98,23.47,1.75,35.19,2.79,5.29.47,10.62.76,15.88.96,16.59.63,33.12,2.59,49.76,2.3,5.62-.1,11.16-1.88,17.92-.54Z"/>
    <path class="cls-2" d="M196.31,114.61c-6.95-9.03-14.33-17.3-22.3-25.06-17.09-16.63-35.73-31.35-55.58-44.47-5.85-3.87-7.6-8.26-6.46-14.53.62-3.42,1.36-6.83,2.28-10.19,1.29-4.71,2.78-5.32,7.18-3,9.17,4.84,17.35,11.16,25.07,17.98,22.64,19.99,39.37,44.06,49.2,72.74.65,1.91,1.98,3.85.61,6.52Z"/>
    <path class="cls-2" d="M90.55,165.55c16.07-16.64,34.89-25.54,54.75-14.57,12.04,6.65,24.91,11.8,36.84,18.73,1.79,1.04,3.51,2.2,5.04,4-32.24-1.06-64.32-2.19-96.63-8.16Z"/>
    <path class="cls-2" d="M312.43,148.55c-.08,2.67-2.36,3.96-3.77,5.61-5.95,6.93-12.21,13.59-19.41,19.29-9.92,7.88-21.22,7.46-32.74,5.34-5.53-1.02-10.95-2.57-16.47-3.64-3.22-.63-3.22-1.74-1.03-3.67,3.42-3.03,7.37-5.12,11.77-6.23,19.12-4.82,37.91-10.77,56.83-16.28,1.54-.45,3.04-1.48,4.81-.41Z"/>
    <path class="cls-2" d="M343.97,113.14c-7.24,9.3-13.27,17.86-24.57,21.4-16.78,5.25-33.22,11.6-49.83,17.4-1.97.69-4.86,2.4-6.01.63-1.33-2.05,1.76-3.51,3.21-4.84,18.59-17,39.51-29.66,64.65-34.33,3.77-.7,7.59-.57,12.56-.27Z"/>
    <path class="cls-2" d="M190.64,201.79c-5.27,6.31-11.96,10.91-18.63,15.36-9.68,6.46-19.52,12.72-30.03,17.79-8.58,4.14-22.9.98-28.82-6.16-2.53-3.05.28-3.79,2.17-4.44,6.75-2.33,13.53-4.64,20.39-6.61,17.08-4.9,34.13-9.85,50.91-15.72,1.16-.41,2.37-1.45,4.02-.22Z"/>
    <path class="cls-2" d="M245.09,224.13c.03,1.93-.98,3.16-2.17,4.43-6.2,6.64-14.06,11.06-21.47,16.07-.77.52-1.73,1.24-2.71.51-.74-.56-.45-1.44-.37-2.29,1.45-16.66,4.46-33.1,6.67-49.65.17-1.3.11-3.44,1.76-3.74,1.84-.34,2.12,1.81,2.76,3.04,4.88,9.44,9.69,18.91,14.48,28.4.51,1,.71,2.16,1.06,3.24Z"/>
    <path class="cls-4" d="M212.29,208.29c1.65,5.33-.38,10.17-.56,15.04-.28,7.61-1.22,15.19-2,22.78-.42,4.01-8.84,8.48-12.6,6.87-.94-.4-1.3-1.01-1.06-1.91,3.95-14.52,6.81-29.43,15.22-42.35.08-.12.3-.14.99-.43Z"/>
    <path class="cls-5" d="M245.97,189.84c3.88.78,7.79,1.45,11.64,2.38,2.55.62,3.26,2.87,3.03,5.09-.66,6.55-3.07,12.49-6.82,17.9-1.33,1.93-2.23,2.26-3.25-.32-2.68-6.78-5.58-13.46-8.26-20.24-1.33-3.36-.25-5.17,3.66-4.8Z"/>
  </g>
</svg>